<svg id="Layer_1" xmlns="http://www.w3.org/2000/svg" viewBox="0 0 1553 1553">
  <defs>
    <style>
      .cls-2 {
        fill: #fff;
      }
    </style>
  </defs>
  <g id="child">
    <circle class="cls-2" cx="691.5" cy="728.5" r="61"/>
    <path class="cls-2" d="M883.25,734.26c-7-7.24-18.43-5.69-25.82,1,0,0-43,40.71-59.33,49.34-17,9-48.07,33.45-116,23-26-4-51-5-66-10-12-4-41-25-49-33-13-13-39.75-66.29-39.75-66.29-5.1-8.56-15.56-13.4-24.39-8.54a18.6,18.6,0,0,0-7.79,24.55s19.76,54.88,40.93,81.28c14.06,17.53,62.21,43.9,75.21,67.9,12,22.21-.82,92.79-1.21,116.1S605.69,1209,605.69,1209a25.17,25.17,0,0,0,23.74,26.31h0a25.17,25.17,0,0,0,26.47-23.07l14.2-185.68,25.7,185.68A25.16,25.16,0,0,0,746,1209s-9.91-184.74-9.91-214.44c0-43,6.36-119.58,12.5-130.5,9-16,53.9-29.88,72.5-42.5,28-19,62.37-61.57,62.37-61.57A18.61,18.61,0,0,0,883.25,734.26Z"/>
    <path class="cls-2" d="M880,740.53l-2.78-2.88c.29-.27,28.74-28,38.47-61.12,3.29-11.18,9.07-35,6-56.08-11,7-22.25,10.32-33.21,9.64-15.85-1-27.53-7.79-32.06-18.66a23.89,23.89,0,0,1,4.05-25.07c7.07-8.07,18.61-10.7,31.66-7.2,12.13,3.25,21.21,10.13,27,20.43a54.72,54.72,0,0,1,5.38,14q3.42-2.58,6.77-5.67c26.31-24.25,46.66-69.78,47.34-105.9l4,.08C981.9,539.22,961,586,934,610.89a92.42,92.42,0,0,1-8.59,7c3.7,21.16-1.6,45.24-5.86,59.73C909.48,711.77,881.19,739.37,880,740.53Zm1.25-158.88c-7.31,0-13.54,2.51-17.77,7.35a19.9,19.9,0,0,0-3.36,20.9c3.91,9.4,14.34,15.3,28.61,16.19,10.56.67,21.52-2.74,32.2-9.92a51,51,0,0,0-5.3-14.62c-5.23-9.33-13.49-15.56-24.54-18.53A38.06,38.06,0,0,0,881.24,581.65Z"/>
    <path class="cls-2" d="M999.6,318.09c-46-4.59-78,25-78,81,0,42.64,39.71,81.72,54,94-5.93,4.88-14.74,11.32-19,17,3,8,42,5,47,2-4-9-9-11.38-11-16,16-10.29,60.84-42.83,66-84C1064.31,366.49,1049.6,323.09,999.6,318.09Z"/>
  </g>
  <g id="ring_mini" >
    <path class="cls-2" d="M776.5,1421.08A644.75,644.75,0,0,1,525.6,182.58a644.74,644.74,0,0,1,501.8,1187.84A640.62,640.62,0,0,1,776.5,1421.08Zm0-1275.16c-347.7,0-630.58,282.88-630.58,630.58S428.8,1407.08,776.5,1407.08s630.58-282.88,630.58-630.58S1124.2,145.92,776.5,145.92Z"/>
  </g>
</svg>
