<svg id="Layer_1" xmlns="http://www.w3.org/2000/svg" viewBox="0 0 1553 1553">
  <defs>
    <style>
      .cls-2 {
        fill: #1a6c77;
      }
    </style>
  </defs>
  <g id="ring_mini">
    <path class="cls-2" d="M776.5,1421.08A644.75,644.75,0,0,1,525.6,182.58a644.74,644.74,0,0,1,501.8,1187.84A640.62,640.62,0,0,1,776.5,1421.08Zm0-1275.16c-347.7,0-630.58,282.88-630.58,630.58S428.8,1407.08,776.5,1407.08s630.58-282.88,630.58-630.58S1124.2,145.92,776.5,145.92Z"/>
  </g>
  <g id="family">
    <circle class="cls-2" cx="598.59" cy="547.5" r="69.5"/>
    <circle class="cls-2" cx="927.75" cy="305" r="50"/>
    <g>
      <path class="cls-2" d="M959.45,712.71h0a20.21,20.21,0,0,1-16.3-22.49l11.17-94.39c1.43-12.11,12.48-20.59,24.16-18.54l9,1.56c11.68,2,19.2,13.76,16.44,25.64l-21.48,92.58A20.21,20.21,0,0,1,959.45,712.71Z"/>
      <path class="cls-2" d="M896,715.91h0a20.21,20.21,0,0,0,16.3-22.5L901.17,599c-1.43-12.11-12.47-20.59-24.16-18.55l-9,1.57c-11.68,2-19.2,13.76-16.44,25.63l21.49,92.59A20.21,20.21,0,0,0,896,715.91Z"/>
    </g>
    <circle class="cls-2" cx="927.75" cy="504.5" r="69.5"/>
    <path class="cls-2" d="M841.45,730.69,763.8,753.64a9.65,9.65,0,0,1-11.1-4.45c-11.12-19.4-43.55-75.48-52.61-86.19-8.27-9.78-23-22-41-27-14.1-3.92-30-6.1-59-6.5-36-.5-60.5,8-60.5,8v.06c-19.85,5.74-32.44,21.65-36.49,27.44-28,40-97.7,245-97.7,245a18.7,18.7,0,0,0,34.37,14.62l87.1-191L491.59,1022.5h41.24l10.71,257.76a18.7,18.7,0,0,0,37.35-.13l8.92-257.63h20l10.71,257.76a18.7,18.7,0,0,0,37.35-.13l8.92-257.63h41.81L673.09,733s34,49,45,59c12,11,31,17,55,9l67.09-25.06Z"/>
    <path class="cls-2" d="M1127.59,582.5c-50.76-46.88-100-91.72-100-91.72a23.34,23.34,0,0,0-33.22,32.73l80.6,89.76L1013,609.43l-20.86,89.9A30.17,30.17,0,0,1,962.81,723a29,29,0,0,1-5.08-.44A30.22,30.22,0,0,1,933.22,689l11.17-94.38c0-.16.05-.32.07-.48A152.56,152.56,0,0,0,926.09,593a139.13,139.13,0,0,0-15.7.94,31.67,31.67,0,0,1,.71,3.91l11.17,94.39a30.22,30.22,0,0,1-24.51,33.52,29.79,29.79,0,0,1-5.08.44,30.16,30.16,0,0,1-29.33-23.67l-21.49-92.59c0-.12-.05-.24-.08-.36l-61.21,3.69,80.61-89.76A23.35,23.35,0,0,0,828,490.78s-49.29,44.84-100,91.72c-11.4,10.53-23,27-21,44,2.7,23,15,45,145.9,55.76v.11l-7.63,272-14.42,306.56a35.45,35.45,0,0,0,33.46,37.06h0a35.45,35.45,0,0,0,37.29-32.5l26.71-301.8,26.7,301.8a35.45,35.45,0,0,0,70.75-4.56l-14.44-307.07-7-271.51c131.38-10.8,141.67-32.76,144.38-55.8C1150.59,609.5,1139,593,1127.59,582.5Z"/>
    <path class="cls-2" d="M1048,292.57a12.93,12.93,0,0,0-12.13-13.16c-7-.46-12.15,5.67-12.85,12.56,0,0-9.27,48.48-13.64,60.53-2.68,7.4-29.72,23.18-30.09,23.27-5.15-1.26-31-7.32-51.57-7.77s-46.81,6.43-51.69,7.77c-.32-.09-27.28-15.87-30-23.27C841.73,340.45,832.45,292,832.45,292c-.69-6.89-5.85-13-12.84-12.56a12.93,12.93,0,0,0-12.14,13.16s-1.36,50.8,6.62,72.93c8.66,24,58.31,56.79,63.16,66.5a82.2,82.2,0,0,0,4.13,8,79.26,79.26,0,0,1,94.39,1.22,71.47,71.47,0,0,0,2.48-9.2c3.16-13.52,53.5-39.5,63.16-66.5C1049.33,343.35,1048,292.57,1048,292.57Z"/>
  </g>
</svg>
