<svg xmlns="http://www.w3.org/2000/svg" viewBox="0 0 1553 1553">
  <defs>
    <style>
      .cls-1 {
        fill: #fff;
      }

      .cls-2 {
        fill: #1a6c77;
      }
    </style>
  </defs>
  <g id="Layer_2">
    <circle id="ring_white" class="cls-1" cx="776.5" cy="776.5" r="776.5"/>
    <g id="ring_mini">
      <path class="cls-2" d="M776.5,1421.08A644.75,644.75,0,0,1,525.6,182.58a644.74,644.74,0,0,1,501.8,1187.84A640.62,640.62,0,0,1,776.5,1421.08Zm0-1275.16c-347.7,0-630.58,282.88-630.58,630.58S428.8,1407.08,776.5,1407.08s630.58-282.88,630.58-630.58S1124.2,145.92,776.5,145.92Z"/>
    </g>
    <g id="child_junk2">
      <circle class="cls-2" cx="779.05" cy="555.3" r="61"/>
      <path class="cls-2" d="M941.09,483c-10-1.28-18,7.06-19.56,16.9,0,0-15.58,67.69-22.38,84.83-4,10.18-56.65,50.74-65.6,54-6.36,2.34-29.93-1.44-53-4-27-3-42-.3-55-3.3-10.17-2.35-66.44-53.66-69.45-64.2-5.07-17.73-3.92-85.64-3.92-85.64-.63-10-7.72-19-17.79-18.75a18.6,18.6,0,0,0-18.15,18.27s-8.9,72-2.14,105.12c2.76,13.53,38,55.15,67.45,84.2a80,80,0,0,1,23,44c4.79,28.74,4,79,20.55,122.8,8.75,23.14,14,76,2,91-6.65,8.31-95.21-39.88-95.21-39.88a25.16,25.16,0,0,0-23,44.78s123.16,80.1,158.16,47.1S801.5,849.5,801.5,849.5s38.37,51.85,44.55,79.8-3.74,134-3.74,134a25.16,25.16,0,0,0,50.14,4.23s17.31-116.44,13.6-145.19c-4-31-34.85-86.71-35-87C851.43,797.56,848,758.5,848.5,730.5c.17-9.1,1-29,13-40,29.66-27.19,70-62,77.57-82.68C948,583.32,957.35,503,957.35,503A18.62,18.62,0,0,0,941.09,483Z"/>
    </g>
  </g>
</svg>
