<svg id="Layer_1" xmlns="http://www.w3.org/2000/svg" viewBox="0 0 16 16">
  <defs>
    <style>
      .cls-1 {
        fill: #fff;
      }
    </style>
  </defs>
  <path class="cls-1" d="M15.71.23A.28.28,0,0,0,15.46,0a.26.26,0,0,0-.27.21A3.64,3.64,0,0,1,14.27,2a8.57,8.57,0,0,1-1.84,1.43c-.81.49-1.66.9-2.51,1.31L9.34,5A20.65,20.65,0,0,0,4.7,7.69,8.51,8.51,0,0,0,3,9.56a16.16,16.16,0,0,0-1,2A22.63,22.63,0,0,0,.85,14.64a.83.83,0,0,1,0,.15L.22,16H.86l.44-.91c.94-1.09,2.75-1.43,4.84-1.83s4.64-.87,6.57-2.34A5.67,5.67,0,0,0,14,9.5a9.26,9.26,0,0,0,.83-1.63,12.55,12.55,0,0,0,.49-1.58c.12-.53.21-1.07.28-1.6s.11-1,.14-1.51,0-.86,0-1.29,0-.67,0-1,0-.39,0-.58Zm-11,8.09A21.09,21.09,0,0,1,9.56,5.47a18,18,0,0,0,5-3,15.27,15.27,0,0,1-3.83,4.79A19.58,19.58,0,0,1,8,8.78a23.21,23.21,0,0,0-3.21,1.83,17.1,17.1,0,0,0-3,2.84A13.38,13.38,0,0,1,4.72,8.32Zm7.67,2.18c-1.83,1.4-4.23,1.85-6.34,2.25a15.13,15.13,0,0,0-3.9,1.07,15.78,15.78,0,0,1,3-2.78,22.1,22.1,0,0,1,3.13-1.8A19.1,19.1,0,0,0,11,7.69a16,16,0,0,0,4.26-5.54C15.22,4.56,14.8,8.67,12.39,10.5Z"/>
</svg>
