<?xml version="1.0" encoding="utf-8"?>
<!-- Generator: Adobe Illustrator 17.0.0, SVG Export Plug-In . SVG Version: 6.00 Build 0)  -->
<!DOCTYPE svg PUBLIC "-//W3C//DTD SVG 1.1//EN" "http://www.w3.org/Graphics/SVG/1.1/DTD/svg11.dtd">
<svg version="1.1" id="Layer_1" xmlns="http://www.w3.org/2000/svg" xmlns:xlink="http://www.w3.org/1999/xlink" x="0px" y="0px"
	 width="500px" height="96px" viewBox="0 0 500 96" enable-background="new 0 0 500 96" xml:space="preserve">
<path fill="#1A6D78" d="M100.946,74.495v-5.007h-0.591c-7.737,0.09-15.172-3.003-20.562-8.554
	c-5.545-5.195-8.678-12.465-8.646-20.064c-0.052-7.559,3.088-14.79,8.646-19.914c5.414-5.447,12.802-8.47,20.481-8.38h0.673v-2.215
	h2.747v2.214h0.625c7.74-0.088,15.177,3.005,20.574,8.555c5.529,5.172,8.658,12.412,8.635,19.983
	c0.028,7.575-3.135,14.813-8.716,19.936c-5.405,5.475-12.8,8.52-20.493,8.438h-0.591v5.007
	C103.729,74.495,100.946,74.495,100.946,74.495z M100.355,67.239h0.591V14.825h-0.673c-6.986-0.072-13.695,2.737-18.545,7.766
	c-10.175,9.866-10.425,26.113-0.56,36.287c0.184,0.189,0.37,0.376,0.56,0.56C86.6,64.491,93.338,67.313,100.355,67.239z
	 M104.32,14.825h-0.673v52.414h0.673c7.016,0.067,13.755-2.738,18.65-7.765c10.135-9.64,10.536-25.67,0.897-35.805
	c-0.325-0.341-0.658-0.674-1.002-0.995C118.016,17.631,111.315,14.795,104.32,14.825z"/>
<path fill="#1A6D78" d="M172.706,14.326h-29.765v34.043h27.621v2.423h-27.621v21.281h29.765v2.423h-32.455V11.905h32.455V14.326z"/>
<path fill="#1A6D78" d="M61.712,48.485c-1.145,5.734-3.998,10.986-8.183,15.068c-5.485,5.755-13.123,8.961-21.073,8.844
	c-7.919,0.088-15.519-3.119-20.979-8.855c-5.701-5.549-8.869-13.198-8.763-21.154c-0.109-7.942,3.061-15.577,8.763-21.107
	c5.499-5.731,13.131-8.922,21.072-8.809c7.929-0.116,15.548,3.075,21.025,8.809c2.212,2.182,4.08,4.687,5.54,7.43h3.025
	c-1.647-3.401-3.866-6.495-6.561-9.145c-6.019-6.215-14.345-9.659-22.995-9.515c-8.666-0.122-16.999,3.338-23.031,9.563
	c-6.177,5.89-9.635,14.078-9.551,22.614C-0.055,50.8,3.361,59.033,9.471,65.048c5.755,6.271,13.894,9.816,22.405,9.759h1.252
	c8.536,0.079,16.711-3.447,22.509-9.713c4.547-4.528,7.635-10.313,8.867-16.61L61.712,48.485z"/>
<path fill="#1A6D78" d="M179.51,74.495V11.905h3.338c7.758-0.086,15.206,3.045,20.574,8.646c5.565,5.244,8.712,12.556,8.694,20.203
	c0.035,7.624-3.111,14.916-8.682,20.122c-5.385,5.539-12.803,8.634-20.527,8.565h-0.58v5.054L179.51,74.495L179.51,74.495z
	 M182.929,14.223h-0.661v52.971h0.579c7.031,0.06,13.776-2.778,18.65-7.847c10.25-9.872,10.556-26.184,0.685-36.433
	c-0.25-0.259-0.505-0.514-0.765-0.762c-4.805-5.085-11.492-7.965-18.487-7.963V14.223z"/>
<path fill="#1A6D78" d="M269.212,74.46l-6.874-14.095c8.276-15.532,6.143-38.343,6.027-39.525c0.025-0.64-0.473-1.18-1.113-1.205
	c-0.64-0.025-1.18,0.473-1.205,1.113l0,0c-1.217,6.839-7.314,11.706-15.161,16.076l-12.982-26.462L224.795,37.16l-10.119,20.725
	c-8.635,9.342-13.445,25.744-14.477,29.568l-2.701,5.54h2.921l2.028-4.126c4.3-4.995,12.587-6.572,22.15-8.38
	c9.934-1.889,21.2-4.01,30.032-10.734c2.392-1.852,4.449-4.098,6.085-6.642l5.575,11.371L269.212,74.46z M227.184,38.482
	l10.745-21.884l10.559,21.513c-2.944,1.542-6.062,3.036-9.273,4.555c-6.804,3.257-13.782,6.618-19.38,10.722L227.184,38.482z
	 M218.119,57.839c5.715-5.158,14.072-9.157,22.162-13.028c8.821-4.219,17.316-8.287,22.672-13.747
	c-4.092,8.021-11.521,17.595-17.537,21.954c-3.867,2.642-7.941,4.967-12.182,6.955c-5.1,2.396-10,5.198-14.651,8.38
	c-5.149,3.753-9.82,8.12-13.909,13.005c2.481-7.175,7.013-17.711,13.423-23.518H218.119z M253.216,67.842
	c-8.392,6.375-19.356,8.45-29.035,10.281c-6.838,1.286-13.04,2.481-17.838,4.903c3.991-4.801,8.566-9.084,13.619-12.75
	c4.557-3.105,9.352-5.85,14.338-8.206c4.364-2.025,8.55-4.409,12.518-7.128c6.456-4.636,15.427-16.054,19.473-25.326
	c-0.139,11.023-2.016,29.824-13.097,38.226L253.216,67.842z"/>
</svg>
