<svg id="Layer_1" data-name="Layer 1" xmlns="http://www.w3.org/2000/svg" viewBox="0 0 481.89 127.56">
  <defs>
    <style>
      .cls-1 {
        fill: #1a6d78;
      }
    </style>
  </defs>
  <path class="cls-1" d="M115.09,83.6V79.28h-.51A24.33,24.33,0,0,1,96.84,71.9a23.59,23.59,0,0,1-7.46-17.31,23.15,23.15,0,0,1,7.46-17.18,24.51,24.51,0,0,1,17.67-7.23h.58V28.27h2.37v1.91H118a24.37,24.37,0,0,1,17.75,7.38,23.51,23.51,0,0,1,7.45,17.24A23.23,23.23,0,0,1,135.68,72,24.48,24.48,0,0,1,118,79.28h-.51V83.6Zm-.51-6.26h.51V32.12h-.58a21.92,21.92,0,0,0-16,6.7,22.14,22.14,0,0,0,0,31.79A22,22,0,0,0,114.58,77.34ZM118,32.12h-.58V77.34H118a22.16,22.16,0,0,0,16.09-6.7A21.85,21.85,0,0,0,134,38.89,22.07,22.07,0,0,0,118,32.12Z"/>
  <path class="cls-1" d="M177,31.69H151.32V61.06h23.83v2.09H151.32V81.51H177V83.6H149v-54H177Z"/>
  <path class="cls-1" d="M81.24,61.16a25,25,0,0,1-7.06,13A24.61,24.61,0,0,1,56,81.79,24.61,24.61,0,0,1,37.9,74.15,25,25,0,0,1,30.34,55.9,24.89,24.89,0,0,1,37.9,37.69a24.71,24.71,0,0,1,18.18-7.6,24.59,24.59,0,0,1,18.14,7.6A26.51,26.51,0,0,1,79,44.1h2.61a28.49,28.49,0,0,0-5.66-7.89A27,27,0,0,0,56.11,28a27.14,27.14,0,0,0-19.87,8.25A26.6,26.6,0,0,0,28,55.76a27.38,27.38,0,0,0,8.17,19.69,26,26,0,0,0,19.33,8.42h1.08A26.13,26.13,0,0,0,76,75.49a27.74,27.74,0,0,0,7.65-14.33Z"/>
  <path class="cls-1" d="M182.87,83.6v-54h2.88a24.21,24.21,0,0,1,17.75,7.46A23.87,23.87,0,0,1,211,54.49a23.61,23.61,0,0,1-7.49,17.36,24.4,24.4,0,0,1-17.71,7.39h-.5V83.6Zm2.95-52h-.57v45.7h.5a22.06,22.06,0,0,0,16.09-6.77,22.23,22.23,0,0,0-.07-32.09A21.93,21.93,0,0,0,185.82,31.57Z"/>
  <path class="cls-1" d="M288.9,40.37h8.37v10.4h-.74V41h-6.89v9.76h-.74Z"/>
  <path class="cls-1" d="M305.54,51.07h-.21a5.13,5.13,0,0,1-3.81-1.64,5.38,5.38,0,0,1-1.6-3.85,5.22,5.22,0,0,1,1.62-3.82,5.44,5.44,0,0,1,4-1.6,5.29,5.29,0,0,1,4,1.78v1.18a5.26,5.26,0,0,0-1.82-1.69,4.6,4.6,0,0,0-5.63.8,4.72,4.72,0,0,0,0,6.77,4.54,4.54,0,0,0,3.33,1.42,4.62,4.62,0,0,0,2.3-.62,5.31,5.31,0,0,0,1.82-1.71v1.2A5.21,5.21,0,0,1,305.54,51.07Z"/>
  <path class="cls-1" d="M320.82,40.39V50.77h-.72V41.55l-7.49,9.22H312V40.39h.72v9.22l7.47-9.22Z"/>
  <path class="cls-1" d="M328,44.46l4.19,6.31h-.86l-3.74-5.67-3.72,5.67h-.74l4.09-6.24-2.75-4.16h.85l2.31,3.51,2.31-3.51h.74Z"/>
  <path class="cls-1" d="M333.69,45.52a5.18,5.18,0,0,1,1.62-3.8,5.49,5.49,0,0,1,7.77,0,5.21,5.21,0,0,1,1.61,3.81,5.37,5.37,0,0,1-1.57,3.85A5.11,5.11,0,0,1,339.3,51h-.23a5.14,5.14,0,0,1-3.78-1.65A5.35,5.35,0,0,1,333.69,45.52Zm10.26.06a4.72,4.72,0,0,0-1.4-3.39,4.51,4.51,0,0,0-3.34-1.43,4.57,4.57,0,0,0-3.36,1.44,4.67,4.67,0,0,0-1.42,3.39,4.85,4.85,0,0,0,4.79,4.78A4.47,4.47,0,0,0,342.56,49,4.65,4.65,0,0,0,344,45.58Z"/>
  <path class="cls-1" d="M346.86,50.77h-.67l5.11-10.7,5.13,10.7h-.81l-4.39-9.13Z"/>
  <path class="cls-1" d="M357.93,45.52a5.18,5.18,0,0,1,1.62-3.8,5.5,5.5,0,0,1,7.78,0,5.2,5.2,0,0,1,1.6,3.81,5.37,5.37,0,0,1-1.57,3.85A5.1,5.1,0,0,1,363.55,51h-.23a5.1,5.1,0,0,1-3.78-1.65A5.37,5.37,0,0,1,357.93,45.52Zm10.26.06a4.68,4.68,0,0,0-1.4-3.39,4.5,4.5,0,0,0-3.33-1.43,4.58,4.58,0,0,0-3.37,1.44,4.71,4.71,0,0,0-1.42,3.39,4.85,4.85,0,0,0,4.8,4.78A4.5,4.5,0,0,0,366.81,49,4.68,4.68,0,0,0,368.19,45.58Z"/>
  <path class="cls-1" d="M376.19,41h-3.86v9.73h-.74V40.39h4.6Z"/>
  <path class="cls-1" d="M387.35,40.39V50.77h-.72V41.55l-7.48,9.22h-.65V40.39h.72v9.22l7.46-9.22Z"/>
  <path class="cls-1" d="M390,43.6V40.37h.74v3.16a3.17,3.17,0,0,0,.86,2.22,2.8,2.8,0,0,0,2.12.93,2.74,2.74,0,0,0,2.1-.93,3.17,3.17,0,0,0,.86-2.22V40.37h.74v10.4h-.72V45.64a3.07,3.07,0,0,1-1.19,1.18,3.24,3.24,0,0,1-1.7.46h-.14A3.74,3.74,0,0,1,390,43.6Z"/>
  <path class="cls-1" d="M405.7,51h-.25a5,5,0,0,1-3.78-1.64,5.34,5.34,0,0,1-1.59-3.85,5.18,5.18,0,0,1,1.62-3.81,5.46,5.46,0,0,1,4-1.61,5.34,5.34,0,0,1,4.09,1.9l-7.26,7.16a4.69,4.69,0,0,0,2.89,1.21,4.91,4.91,0,0,0,2.49-.64,5.44,5.44,0,0,0,1.81-1.7v1.18A5.22,5.22,0,0,1,405.7,51Zm-.2-10.26a4.88,4.88,0,0,0-4.68,4.69,4.73,4.73,0,0,0,1.23,3.24L408.77,42A4.83,4.83,0,0,0,405.5,40.78Z"/>
  <path class="cls-1" d="M417,51.07h-.21A5.15,5.15,0,0,1,413,49.43a5.37,5.37,0,0,1-1.59-3.85A5.25,5.25,0,0,1,413,41.76a5.44,5.44,0,0,1,4-1.6,5.29,5.29,0,0,1,4,1.78v1.18a5.32,5.32,0,0,0-1.81-1.69,4.78,4.78,0,0,0-7.06,4.18A4.63,4.63,0,0,0,413.57,49a4.55,4.55,0,0,0,3.34,1.42,4.67,4.67,0,0,0,2.3-.62A5.38,5.38,0,0,0,421,48.09v1.2A5.21,5.21,0,0,1,417,51.07Z"/>
  <path class="cls-1" d="M423.45,40.37h.74V44l4.11-3.6h.95l-4.76,4.16,6,6.24h-1l-5.27-5.48v5.48h-.74Z"/>
  <path class="cls-1" d="M441.61,40.39V50.77h-.72V41.55l-7.48,9.22h-.65V40.39h.72v9.22l7.46-9.22Z"/>
  <path class="cls-1" d="M453.93,40.39V50.77h-.72V41.55l-7.49,9.22h-.64V40.39h.71v9.22l7.47-9.22Zm-5.69-4.22a2.12,2.12,0,0,0,3,0A2.39,2.39,0,0,0,452,34.7h.67a2.78,2.78,0,0,1-.87,1.89,2.68,2.68,0,0,1-1.93.79h-.19a2.64,2.64,0,0,1-1.91-.78,2.71,2.71,0,0,1-.86-1.9h.65A2.19,2.19,0,0,0,448.24,36.17Z"/>
  <path class="cls-1" d="M288.9,63.48h.74v3.6l4.11-3.6h.95l-4.76,4.16,6,6.24h-1l-5.27-5.48v5.48h-.74Z"/>
  <path class="cls-1" d="M297.73,73.88h-.67l5.11-10.7,5.13,10.7h-.81l-4.39-9.13Z"/>
  <path class="cls-1" d="M319,63.48l-7.14,15h-.67l2.19-4.65-5-10.37h.79L313.81,73l4.56-9.54Z"/>
  <path class="cls-1" d="M326.39,63.27a5.27,5.27,0,0,1,3.89,1.61,5.21,5.21,0,0,1,1.61,3.81,5.42,5.42,0,0,1-1.56,3.85,5,5,0,0,1-3.78,1.64h-.35a5,5,0,0,1-3.73-1.69,5.49,5.49,0,0,1-1.58-3.88V66.85A7.47,7.47,0,0,1,322,62.67a4.7,4.7,0,0,1,1.26-1.26,8.85,8.85,0,0,1,1.47-.89c.43-.2,1-.45,1.73-.74l4.21-1.67v.68l-4.21,1.68q-4.82,1.92-4.81,5.55v.21a5.06,5.06,0,0,1,2-2.18A5.41,5.41,0,0,1,326.39,63.27Zm-4.76,5.48a4.85,4.85,0,0,0,4.79,4.78,4.48,4.48,0,0,0,3.34-1.42,4.79,4.79,0,0,0,0-6.76,4.49,4.49,0,0,0-3.34-1.43,4.56,4.56,0,0,0-3.36,1.44A4.66,4.66,0,0,0,321.63,68.75Z"/>
  <path class="cls-1" d="M275.76,29.6v54H273.4v-54Z"/>
  <path class="cls-1" d="M260.26,83.57l-5.93-12.16c7.14-13.4,5.3-33.08,5.2-34.1a1,1,0,0,0-2-.08c-1.05,5.9-6.31,10.1-13.08,13.87L233.25,28.27,221.94,51.39l-8.73,17.88c-7.45,8.06-11.6,22.21-12.49,25.51l-2.33,4.78h2.52L202.66,96c3.71-4.31,10.86-5.67,19.11-7.23,8.57-1.63,18.29-3.46,25.91-9.26a22.94,22.94,0,0,0,5.25-5.73l4.81,9.81ZM224,52.53l9.27-18.88,9.11,18.56c-2.54,1.33-5.23,2.62-8,3.93-5.87,2.81-11.89,5.71-16.72,9.25Zm-7.82,16.7c4.93-4.45,12.14-7.9,19.12-11.24,7.61-3.64,14.94-7.15,19.56-11.86-3.53,6.92-9.94,15.18-15.13,18.94a75.15,75.15,0,0,1-10.51,6,90.66,90.66,0,0,0-12.64,7.23,67.49,67.49,0,0,0-12,11.22C206.72,83.33,210.63,74.24,216.16,69.23Zm30.28,8.63c-7.24,5.5-16.7,7.29-25.05,8.87-5.9,1.11-11.25,2.14-15.39,4.23a64.66,64.66,0,0,1,11.75-11,91.08,91.08,0,0,1,12.37-7.08,74.81,74.81,0,0,0,10.8-6.15c5.57-4,13.31-13.85,16.8-21.85C257.62,54.39,256,70.61,246.44,77.86Z"/>
</svg>
