<svg version="1.1" id="Layer_1" xmlns="http://www.w3.org/2000/svg" xmlns:xlink="http://www.w3.org/1999/xlink" x="0px" y="0px"
	 width="500px" height="96px" viewBox="0 0 550 96" enable-background="new 0 0 612 792" xml:space="preserve">
    <defs>
    <style>
      .cls-1 {
      fill: #1a6d78;
      }
    </style>
  </defs>
<g>
	<path class="cls-1" d="M111.041,77.145v-5.508h-0.65c-8.511,0.099-16.689-3.303-22.618-9.409c-6.1-5.715-9.546-13.711-9.511-22.07
		c-0.057-8.315,3.397-16.269,9.511-21.905c5.955-5.992,14.082-9.317,22.529-9.218h0.74V6.599h3.022v2.435h0.688
		c8.514-0.097,16.695,3.305,22.631,9.41c6.082,5.689,9.524,13.653,9.499,21.981c0.031,8.333-3.449,16.294-9.588,21.93
		c-5.945,6.022-14.08,9.372-22.542,9.282h-0.65v5.508H111.041z M110.391,69.163h0.65V11.508h-0.74
		c-7.685-0.079-15.064,3.011-20.4,8.543c-11.193,10.853-11.468,28.724-0.616,39.916c0.202,0.208,0.407,0.414,0.616,0.616
		C95.26,66.14,102.672,69.244,110.391,69.163z M114.752,11.508h-0.74v57.655h0.74c7.718,0.074,15.13-3.012,20.515-8.542
		c11.149-10.604,11.59-28.237,0.987-39.386c-0.357-0.375-0.724-0.741-1.102-1.095C129.818,14.594,122.446,11.475,114.752,11.508z"/>
	<path class="cls-1" d="M189.977,10.959h-32.742v37.447h30.383v2.665h-30.383V74.48h32.742v2.665h-35.7V8.295h35.7V10.959z"/>
	<path class="cls-1" d="M67.883,48.534c-1.26,6.307-4.398,12.085-9.001,16.575c-6.033,6.331-14.435,9.857-23.18,9.728
		c-8.711,0.097-17.071-3.431-23.077-9.741c-6.271-6.104-9.756-14.518-9.639-23.269c-0.12-8.736,3.367-17.135,9.639-23.218
		c6.049-6.304,14.444-9.814,23.179-9.69c8.722-0.128,17.103,3.383,23.128,9.69c2.433,2.4,4.488,5.156,6.094,8.173h3.328
		c-1.812-3.741-4.253-7.144-7.217-10.06C54.516,9.886,45.358,6.097,35.842,6.255c-9.533-0.134-18.699,3.672-25.334,10.519
		C3.713,23.253-0.091,32.26,0.002,41.649C-0.06,51.08,3.697,60.136,10.418,66.753c6.331,6.898,15.283,10.798,24.646,10.735h1.377
		c9.39,0.087,18.382-3.792,24.76-10.684c5.002-4.981,8.398-11.344,9.754-18.271L67.883,48.534z"/>
	<path class="cls-1" d="M197.461,77.145V8.295h3.672c8.534-0.095,16.727,3.349,22.631,9.511c6.121,5.768,9.583,13.812,9.563,22.223
		c0.039,8.386-3.422,16.408-9.55,22.134c-5.924,6.093-14.083,9.497-22.58,9.422h-0.638v5.559H197.461z M201.222,10.845h-0.727
		v58.268h0.637c7.734,0.066,15.154-3.056,20.515-8.632c11.275-10.859,11.612-28.802,0.753-40.076
		c-0.275-0.285-0.556-0.565-0.842-0.838c-5.285-5.594-12.641-8.762-20.336-8.759L201.222,10.845z"/>
	<path class="cls-1" d="M332.649,22.026h10.672v13.26h-0.943V22.83h-8.785v12.444h-0.944V22.026z"/>
	<path class="cls-1" d="M353.865,35.669h-0.268c-1.841,0.018-3.605-0.741-4.858-2.091c-1.312-1.296-2.047-3.065-2.04-4.909
		c-0.014-1.839,0.734-3.602,2.065-4.871c1.347-1.353,3.192-2.091,5.1-2.04c1.948-0.015,3.807,0.812,5.1,2.269v1.504
		c-0.59-0.893-1.386-1.632-2.321-2.155c-2.342-1.357-5.307-0.935-7.178,1.02c-2.384,2.316-2.438,6.126-0.122,8.51
		c0.04,0.041,0.081,0.082,0.122,0.122c1.103,1.166,2.641,1.822,4.246,1.81c1.03-0.003,2.041-0.275,2.932-0.79
		c0.936-0.532,1.731-1.279,2.32-2.18v1.53C357.681,34.868,355.816,35.698,353.865,35.669z"/>
	<path class="cls-1" d="M373.347,22.052v13.234h-0.918V23.531l-9.55,11.756h-0.778V22.052h0.918v11.755l9.524-11.755H373.347z"/>
	<path class="cls-1" d="M382.502,27.241l5.342,8.045h-1.096l-4.768-7.229l-4.743,7.229h-0.943l5.215-7.956l-3.506-5.304h1.084l2.945,4.475
		l2.945-4.475h0.944L382.502,27.241z"/>
	<path class="cls-1" d="M389.756,28.593c-0.013-1.832,0.735-3.586,2.065-4.845c2.731-2.736,7.163-2.739,9.899-0.008
		c0.003,0.003,0.005,0.005,0.008,0.008c1.325,1.267,2.068,3.025,2.053,4.858c0.019,1.839-0.702,3.608-2.002,4.909
		c-1.258,1.346-3.028,2.097-4.87,2.065h-0.293c-1.83,0.002-3.577-0.76-4.819-2.104C390.487,32.189,389.751,30.429,389.756,28.593z
		 M402.838,28.669c0.012-1.622-0.632-3.181-1.785-4.322c-1.101-1.178-2.646-1.839-4.259-1.823c-1.621-0.011-3.174,0.655-4.284,1.836
		c-1.169,1.133-1.823,2.695-1.811,4.322c0.048,3.351,2.756,6.053,6.107,6.094c1.602,0.042,3.148-0.592,4.258-1.747
		c1.191-1.136,1.856-2.715,1.836-4.36H402.838z"/>
	<path class="cls-1" d="M406.548,35.286h-0.854l6.515-13.642l6.541,13.642h-1.033l-5.597-11.641L406.548,35.286z"/>
	<path class="cls-1" d="M420.662,28.593c-0.013-1.832,0.735-3.586,2.065-4.845c2.738-2.739,7.178-2.74,9.917-0.002
		c0.001,0.001,0.002,0.002,0.002,0.002c1.322,1.268,2.06,3.026,2.04,4.858c0.019,1.839-0.702,3.608-2.002,4.909
		c-1.254,1.344-3.019,2.095-4.858,2.065h-0.293c-1.831,0.009-3.581-0.755-4.82-2.104C421.403,32.189,420.664,30.43,420.662,28.593z
		 M433.744,28.669c0.018-1.624-0.627-3.184-1.785-4.322c-1.097-1.176-2.638-1.837-4.246-1.823c-1.625-0.013-3.182,0.653-4.297,1.836
		c-1.164,1.136-1.817,2.696-1.811,4.322c0.048,3.356,2.764,6.06,6.12,6.094c1.601,0.038,3.145-0.596,4.258-1.747
		C433.143,31.878,433.779,30.302,433.744,28.669z"/>
	<path class="cls-1" d="M443.944,22.83h-4.921v12.406h-0.943V22.052h5.865L443.944,22.83z"/>
	<path class="cls-1" d="M458.173,22.052v13.234h-0.918V23.531l-9.537,11.756h-0.829V22.052h0.918v11.755l9.512-11.755H458.173z"/>
	<path class="cls-1" d="M461.552,26.145v-4.118h0.943v4.029c-0.016,1.05,0.377,2.065,1.096,2.831c0.688,0.767,1.673,1.199,2.703,1.186
		c1.023,0.016,2.002-0.417,2.678-1.186c0.719-0.765,1.113-1.78,1.096-2.831v-4.029h0.943v13.26h-0.918v-6.541
		c-0.356,0.633-0.882,1.153-1.517,1.505c-0.655,0.392-1.405,0.595-2.168,0.586h-0.179C463.662,30.789,461.592,28.714,461.552,26.145
		z"/>
	<path class="cls-1" d="M481.569,35.58h-0.319c-1.832,0.028-3.588-0.734-4.819-2.091c-1.312-1.294-2.044-3.066-2.027-4.909
		c-0.017-1.836,0.732-3.596,2.065-4.858c1.346-1.355,3.19-2.097,5.1-2.053c2.011-0.002,3.919,0.885,5.215,2.423l-9.257,9.129
		c1.015,0.921,2.316,1.466,3.685,1.543c1.112,0.015,2.208-0.267,3.175-0.816c0.926-0.535,1.716-1.277,2.308-2.167v1.505
		C485.408,34.768,483.533,35.608,481.569,35.58z M481.314,22.498c-3.245,0.131-5.843,2.735-5.967,5.98
		c-0.019,1.526,0.542,3.002,1.568,4.131l8.568-8.504c-1.147-1.02-2.634-1.575-4.169-1.556V22.498z"/>
	<path class="cls-1" d="M495.977,35.669h-0.268c-1.832,0.008-3.584-0.75-4.832-2.091c-1.309-1.297-2.039-3.066-2.027-4.909
		c-0.02-1.833,0.713-3.593,2.027-4.871c1.347-1.353,3.192-2.091,5.1-2.04c1.948-0.015,3.807,0.812,5.1,2.269v1.505
		c-0.589-0.89-1.38-1.628-2.308-2.155c-2.958-1.606-6.658-0.509-8.264,2.449c-0.48,0.884-0.733,1.874-0.738,2.88
		c-0.012,1.633,0.653,3.197,1.836,4.322c1.107,1.168,2.649,1.824,4.258,1.81c1.029-0.006,2.04-0.278,2.932-0.791
		c0.92-0.539,1.701-1.286,2.282-2.18v1.53C499.792,34.868,497.927,35.698,495.977,35.669z"/>
	<path class="cls-1" d="M504.2,22.026h0.943v4.628l5.24-4.59h1.211l-6.069,5.304l7.65,7.956h-1.275l-6.719-6.987v6.987h-0.943L504.2,22.026z"/>
	<path class="cls-1" d="M527.354,22.052v13.234h-0.918V23.531l-9.537,11.756h-0.829V22.052h0.918v11.755l9.512-11.755H527.354z"/>
	<path class="cls-1" d="M543.062,22.052v13.234h-0.918V23.531l-9.55,11.756h-0.816V22.052h0.905v11.755l9.524-11.755H543.062z M535.808,16.671
		c1.055,1.056,2.766,1.057,3.823,0.002c0.001-0.001,0.002-0.002,0.002-0.002c0.536-0.489,0.88-1.154,0.969-1.874h0.854
		c-0.044,0.917-0.441,1.78-1.109,2.41c-0.651,0.654-1.538,1.017-2.461,1.007h-0.242c-0.913,0.013-1.792-0.346-2.435-0.994
		c-0.674-0.629-1.069-1.501-1.096-2.423h0.829C534.98,15.51,535.29,16.18,535.808,16.671z"/>
	<path class="cls-1" d="M332.649,51.492h0.944v4.59l5.24-4.59h1.211l-6.069,5.304l7.65,7.956h-1.275l-6.719-6.987v6.987h-0.943L332.649,51.492z"/>
	<path class="cls-1" d="M343.907,64.752h-0.854l6.515-13.643l6.541,13.643h-1.033l-5.597-11.641L343.907,64.752z"/>
	<path class="cls-1" d="M371.027,51.492l-9.104,19.125h-0.854l2.792-5.929l-6.375-13.222h1.007l5.916,12.164l5.814-12.164L371.027,51.492z"/>
	<path class="cls-1" d="M380.449,51.224c1.867-0.035,3.663,0.709,4.96,2.053c1.325,1.267,2.068,3.025,2.053,4.858
		c0.015,1.835-0.7,3.602-1.989,4.909c-1.231,1.357-2.987,2.119-4.82,2.091h-0.446c-1.82-0.006-3.551-0.791-4.756-2.155
		c-1.299-1.318-2.023-3.097-2.014-4.947v-2.244c-0.064-1.877,0.428-3.731,1.415-5.33c0.428-0.633,0.973-1.178,1.607-1.606
		c0.586-0.438,1.214-0.818,1.874-1.135c0.548-0.255,1.275-0.574,2.206-0.944l5.368-2.129v0.867l-5.368,2.142
		c-4.097,1.632-6.141,3.991-6.133,7.076v0.268c0.554-1.16,1.442-2.128,2.55-2.78C378.01,51.581,379.216,51.237,380.449,51.224z
		 M374.38,58.211c0.048,3.351,2.756,6.053,6.107,6.094c1.611,0.024,3.158-0.633,4.258-1.81c2.373-2.383,2.373-6.236,0-8.619
		c-1.099-1.181-2.646-1.843-4.258-1.823c-1.622-0.012-3.174,0.653-4.284,1.836C375.028,55.018,374.369,56.581,374.38,58.211z"/>
	<path class="cls-1" d="M315.896,8.295v68.85h-3.009V8.295L315.896,8.295z"/>
	<path class="cls-1" d="M296.133,77.106l-7.561-15.504c9.104-17.085,6.757-42.177,6.63-43.478c0.028-0.704-0.52-1.298-1.224-1.326
		c-0.704-0.028-1.298,0.52-1.326,1.224l0,0c-1.339,7.523-8.045,12.877-16.677,17.684l-14.28-29.108l-14.42,29.478l-11.131,22.797
		c-9.499,10.276-14.79,28.318-15.925,32.525l-2.971,6.094h3.213l2.231-4.539c4.73-5.495,13.846-7.229,24.365-9.218
		c10.927-2.078,23.32-4.411,33.035-11.807c2.631-2.037,4.894-4.508,6.694-7.306l6.133,12.508L296.133,77.106z M249.902,37.53
		l11.819-24.072l11.615,23.664c-3.238,1.696-6.668,3.34-10.2,5.011c-7.484,3.583-15.16,7.28-21.318,11.794L249.902,37.53z
		 M239.931,58.823c6.286-5.674,15.479-10.073,24.378-14.331c9.703-4.641,19.048-9.116,24.939-15.122
		c-4.501,8.823-12.673,19.354-19.291,24.149c-4.254,2.906-8.735,5.464-13.4,7.65c-5.61,2.636-11,5.718-16.116,9.218
		c-5.664,4.128-10.802,8.932-15.3,14.306c2.729-7.892,7.714-19.482,14.765-25.87L239.931,58.823z M278.538,69.826
		c-9.231,7.012-21.292,9.295-31.939,11.309c-7.522,1.415-14.344,2.729-19.622,5.393c4.39-5.281,9.423-9.992,14.981-14.025
		c5.013-3.416,10.287-6.435,15.772-9.027c4.8-2.227,9.405-4.85,13.77-7.841c7.102-5.1,16.97-17.659,21.42-27.859
		c-0.153,12.125-2.218,32.806-14.407,42.049L278.538,69.826z"/>
</g>
</svg>
