<svg id="Layer_1" data-name="Layer 1" xmlns="http://www.w3.org/2000/svg" viewBox="0 0 1553 1553">
  <defs>
    <style>
      .cls-1 {
        fill: #fff;
      }

      .cls-2 {
        fill: #1a6c77;
      }
    </style>
  </defs>
  <circle id="ring_white" data-name="ring white" class="cls-1" cx="776.5" cy="776.5" r="776.5"/>
  <g id="person">
    <circle class="cls-2" cx="776.5" cy="375.3" r="82"/>
    <path class="cls-2" d="M973.93,822.58s-34-202.78-51-257.28-57.69-92.5-146-92.5c-88.68,0-126.44,35-146.22,92.5s-51.57,257.28-51.57,257.28a23.35,23.35,0,0,0,45.36,10.85L690.36,605.1l-6.62,271.4-16.07,341.74a39.61,39.61,0,0,0,37.36,41.4h0a39.6,39.6,0,0,0,41.65-36.3l29.82-337,29.82,337a39.6,39.6,0,0,0,41.65,36.3h0a39.61,39.61,0,0,0,37.36-41.4L869.21,875.32,863.36,607.7l65.21,225.73a23.35,23.35,0,0,0,45.36-10.85Z"/>
  </g>
  <g id="ring_mini" data-name="ring mini">
    <path class="cls-2" d="M776.5,1421.08A644.75,644.75,0,0,1,525.6,182.58a644.74,644.74,0,0,1,501.8,1187.84A640.62,640.62,0,0,1,776.5,1421.08Zm0-1275.16c-347.7,0-630.58,282.88-630.58,630.58S428.8,1407.08,776.5,1407.08s630.58-282.88,630.58-630.58S1124.2,145.92,776.5,145.92Z"/>
  </g>
</svg>
