<svg id="Layer_1" xmlns="http://www.w3.org/2000/svg" viewBox="0 0 1553 1553">
  <defs>
    <style>
      .cls-1 {
        fill: #fff;
      }

      .cls-2 {
        fill: #1a6c77;
      }
    </style>
  </defs>
  <g id="ring_big">
    <path class="cls-2" d="M776.48,1546.49h-5.07l-7,0,.09-14,7,0c9.21.06,18.54,0,27.75-.32l7-.21.42,14-7,.21C792,1546.38,784.17,1546.49,776.48,1546.49Zm-54.5-1.86-7-.56c-9.36-.73-18.82-1.66-28.12-2.73l-7-.81,1.61-13.91,7,.81c9.12,1.06,18.41,2,27.6,2.69l7,.55Zm127.07-1.48-1.43-13.93,7-.71c9.17-.94,18.43-2.06,27.53-3.34l6.93-1,1.94,13.87-6.93,1c-9.27,1.29-18.7,2.44-28,3.4Zm-211.12-9.06-6.87-1.31c-9.22-1.76-18.52-3.72-27.65-5.81l-6.82-1.57,3.14-13.65,6.82,1.57c9,2.06,18.09,4,27.14,5.71l6.87,1.31Zm294.89-3.45-3-13.68,6.84-1.48c9-1.94,18.08-4.08,27-6.35l6.79-1.73,3.45,13.57-6.78,1.73c-9.08,2.31-18.33,4.49-27.5,6.47Zm-377.27-16.28-6.68-2.06c-9-2.78-18-5.76-26.92-8.87l-6.61-2.31L520,1487.9l6.61,2.32c8.71,3,17.6,6,26.42,8.7l6.69,2.07Zm459.16-5.4-4.45-13.27,6.63-2.22c8.73-2.93,17.52-6.06,26.13-9.3l6.55-2.47,4.94,13.1-6.55,2.47c-8.78,3.3-17.73,6.49-26.62,9.47Zm-539-23.38-6.41-2.8c-8.61-3.75-17.27-7.71-25.75-11.78l-6.31-3,6.06-12.62,6.31,3c8.32,4,16.83,7.89,25.28,11.57l6.41,2.79Zm617.92-7.2-5.89-12.7,6.35-3c8.33-3.85,16.7-7.93,24.89-12.09l6.23-3.18,6.36,12.48-6.24,3.17c-8.34,4.25-16.87,8.39-25.35,12.33Zm-694-30.22-6.07-3.49c-8.13-4.67-16.3-9.56-24.26-14.54l-5.94-3.7,7.41-11.88,5.94,3.71c7.82,4.88,15.84,9.68,23.82,14.27l6.07,3.49Zm769.07-8.86-7.25-12,6-3.62c7.86-4.76,15.74-9.73,23.43-14.78l5.85-3.84,7.68,11.7-5.85,3.85c-7.83,5.13-15.85,10.2-23.86,15Zm-840.56-36.7-5.65-4.13c-7.57-5.53-15.15-11.29-22.51-17.1l-5.5-4.33,8.67-11,5.5,4.34c7.23,5.71,14.67,11.35,22.1,16.79l5.65,4.13ZM1239,1392.19l-8.52-11.11,5.56-4.26c7.29-5.59,14.59-11.4,21.68-17.26l5.4-4.46,8.92,10.79-5.4,4.46c-7.22,6-14.66,11.88-22.08,17.58Zm-976.94-42.68-5.16-4.73c-6.92-6.32-13.81-12.86-20.5-19.44l-5-4.91,9.82-10,5,4.91c6.57,6.46,13.34,12.88,20.13,19.09l5.16,4.73Zm1041.72-11.86-9.68-10.12,5.06-4.84c6.65-6.36,13.27-12.94,19.68-19.54l4.88-5,10,9.75-4.88,5c-6.53,6.72-13.27,13.41-20,19.9ZM202.24,1289.54l-4.62-5.26c-6.17-7-12.31-14.29-18.23-21.55L175,1257.3l10.85-8.84,4.42,5.42c5.82,7.14,11.84,14.26,17.91,21.16l4.61,5.26Zm1160-13.21-10.73-9,4.5-5.37c5.92-7,11.79-14.31,17.44-21.58l4.3-5.53,11,8.6-4.3,5.53c-5.76,7.4-11.74,14.8-17.76,22ZM149.34,1223.42l-4-5.73c-5.38-7.67-10.68-15.55-15.76-23.41l-3.81-5.87,11.76-7.61,3.8,5.88c5,7.71,10.2,15.44,15.47,23l4,5.74ZM1413.68,1209l-11.65-7.77,3.88-5.83c5.12-7.67,10.16-15.53,15-23.38l3.67-6,11.92,7.34-3.66,6c-4.92,8-10,16-15.26,23.81ZM104,1151.93l-3.37-6.14c-4.49-8.2-8.89-16.6-13.08-25l-3.14-6.25L97,1108.3l3.14,6.26c4.11,8.2,8.43,16.45,12.84,24.51l3.36,6.14Zm1353.4-15.58-12.43-6.43,3.22-6.22c4.24-8.2,8.39-16.58,12.32-24.91l3-6.33,12.66,6-3,6.33c-4,8.48-8.22,17-12.55,25.37ZM66.84,1075.94l-2.67-6.47c-3.57-8.67-7-17.53-10.27-26.32l-2.42-6.57,13.13-4.85L67,1038.3c3.18,8.63,6.58,17.32,10.08,25.84l2.67,6.47Zm1426.07-16.63-13.07-5,2.52-6.54c3.31-8.61,6.5-17.4,9.49-26.13l2.27-6.63,13.25,4.54-2.27,6.62c-3,8.9-6.3,17.86-9.68,26.63ZM38.24,996.2l-1.93-6.73c-2.58-9-5-18.19-7.29-27.29l-1.69-6.79L40.92,952l1.69,6.8c2.21,8.93,4.62,17.94,7.16,26.79l1.93,6.72Zm1481.4-17.36-13.54-3.54,1.77-6.77c2.33-8.9,4.53-18,6.53-27l1.52-6.83,13.67,3-1.52,6.84c-2,9.15-4.28,18.39-6.65,27.45Zm-1501-65.05-1.18-6.9c-1.57-9.24-3-18.63-4.23-27.93L12.31,872l13.88-1.84.92,6.94c1.22,9.12,2.62,18.35,4.16,27.42l1.18,6.9ZM1537.29,896l-13.85-2,1-6.93c1.34-9.1,2.52-18.35,3.52-27.51l.76-7,13.92,1.53-.76,6.95c-1,9.33-2.23,18.75-3.58,28ZM8.26,829.74l-.42-7c-.55-9.35-.94-18.84-1.16-28.22l-.16-7,14-.32.16,7c.21,9.22.6,18.54,1.14,27.72l.41,7Zm1537.46-18-14-.51.25-7c.33-9.2.5-18.53.5-27.74,0-2.6,0-5.21,0-7.81l-.07-7,14-.14.07,7c0,2.65,0,5.3,0,8,0,9.38-.17,18.88-.51,28.24Zm-1524.66-66-14-.68.34-7c.46-9.37,1.1-18.85,1.9-28.18l.6-7,14,1.2-.6,7c-.79,9.16-1.41,18.47-1.87,27.67Zm1509.39-25.47-.58-7c-.76-9.17-1.7-18.46-2.79-27.59l-.83-7,13.9-1.67L1541,684c1.11,9.31,2.07,18.76,2.84,28.11l.58,7ZM28.91,662.94l-13.82-2.21,1.11-6.91c1.48-9.26,3.15-18.61,5-27.81l1.36-6.86,13.73,2.72-1.36,6.86c-1.79,9-3.43,18.21-4.89,27.3Zm1490.9-25.16-1.34-6.87c-1.76-9-3.71-18.16-5.81-27.12l-1.59-6.81,13.63-3.19,1.6,6.82c2.13,9.13,4.12,18.42,5.91,27.62l1.34,6.87Zm-1474-56.26-13.49-3.73,1.86-6.74c2.5-9,5.19-18.15,8-27.09l2.11-6.67,13.35,4.22-2.11,6.67c-2.78,8.78-5.43,17.72-7.87,26.59ZM1500.15,557l-2.09-6.68c-2.75-8.78-5.7-17.63-8.77-26.31L1487,517.4l13.19-4.68,2.34,6.6c3.13,8.84,6.14,17.85,8.94,26.8l2.09,6.68ZM71.66,502.41l-13-5.2,2.6-6.5c3.49-8.72,7.19-17.5,11-26.1l2.84-6.4,12.79,5.68-2.83,6.4c-3.75,8.44-7.38,17.06-10.8,25.62Zm1400-23.5-2.81-6.41c-3.7-8.4-7.6-16.85-11.6-25.11l-3-6.3,12.6-6.11,3.05,6.3c4.07,8.42,8,17,11.81,25.59l2.82,6.4ZM106.11,426.59,93.77,420l3.3-6.17c4.42-8.27,9.07-16.58,13.8-24.7l3.53-6.05,12.09,7.05L123,396.17c-4.64,8-9.2,16.13-13.55,24.25Zm1328.7-22.1-3.51-6.06c-4.6-7.95-9.41-15.93-14.3-23.71l-3.73-5.92,11.86-7.45,3.72,5.92c5,7.93,9.88,16.05,14.57,24.15l3.51,6.06ZM148.7,355.07l-11.54-7.92,4-5.77c5.3-7.74,10.83-15.48,16.42-23l4.17-5.62L173,321.07l-4.17,5.63c-5.48,7.4-10.91,15-16.12,22.6ZM1390,334.54l-4.15-5.64c-5.46-7.41-11.12-14.82-16.83-22l-4.35-5.48,11-8.71,4.35,5.49c5.82,7.33,11.59,14.88,17.14,22.42l4.15,5.64ZM198.86,288.67l-10.61-9.14,4.57-5.3c6.12-7.1,12.45-14.19,18.83-21.07l4.76-5.13,10.27,9.52-4.76,5.13c-6.26,6.76-12.48,13.72-18.49,20.69Zm1138.81-18.79-4.74-5.15c-6.23-6.77-12.67-13.52-19.15-20.06l-4.92-5,10-9.85,4.92,5c6.6,6.66,13.16,13.53,19.5,20.43l4.74,5.15ZM256,228.18l-9.54-10.24,5.12-4.78c6.85-6.39,13.92-12.74,21-18.87l5.29-4.59L287,200.29l-5.29,4.58c-6.95,6-13.89,12.26-20.62,18.53ZM1278.62,211.3l-5.27-4.61c-6.94-6.05-14.09-12.06-21.24-17.86l-5.44-4.4,8.82-10.88,5.44,4.41c7.28,5.9,14.56,12,21.62,18.19l5.28,4.6Zm-959.32-37-8.37-11.22,5.61-4.19c7.51-5.6,15.23-11.14,22.93-16.45l5.76-4L353.18,150l-5.76,4c-7.56,5.22-15.13,10.65-22.51,16.15Zm894.21-14.8-5.75-4c-7.57-5.27-15.33-10.46-23.08-15.44l-5.89-3.78,7.57-11.78,5.89,3.78c7.89,5.07,15.8,10.37,23.51,15.73l5.74,4ZM388.12,127.69,381,115.62l6-3.54c8.07-4.74,16.33-9.39,24.57-13.84l6.16-3.32,6.65,12.33-6.17,3.32c-8.08,4.36-16.2,8.93-24.12,13.58Zm755-12.56-6.15-3.34c-8.1-4.4-16.39-8.71-24.65-12.81L1106,95.86l6.23-12.54,6.27,3.12c8.41,4.18,16.86,8.57,25.11,13l6.15,3.34ZM461.6,89l-5.71-12.78,6.39-2.86c8.52-3.82,17.24-7.53,25.92-11l6.49-2.63,5.24,13-6.49,2.63c-8.51,3.44-17.08,7.08-25.45,10.83Zm606.57-10.17-6.48-2.64c-8.55-3.48-17.27-6.85-25.94-10l-6.58-2.4,4.8-13.15,6.58,2.4c8.83,3.22,17.72,6.66,26.42,10.21l6.48,2.64ZM538.92,58.53,534.65,45.2l6.67-2.13c8.92-2.86,18-5.6,27.06-8.12l6.74-1.89,3.77,13.48-6.74,1.89c-8.86,2.48-17.8,5.16-26.56,8ZM989.73,51,983,49c-8.86-2.51-17.88-4.88-26.82-7.06l-6.8-1.66,3.32-13.6,6.8,1.66c9.1,2.22,18.29,4.64,27.32,7.19l6.73,1.91ZM619.2,36.84l-2.77-13.72,6.86-1.39c9.18-1.85,18.53-3.56,27.79-5.08L658,15.52l2.26,13.82-6.91,1.13c-9.09,1.49-18.27,3.17-27.28,5ZM908.76,32l-6.9-1.15c-9.08-1.51-18.31-2.88-27.44-4.06l-6.94-.9L869.27,12l7,.9c9.3,1.2,18.7,2.59,27.94,4.13l6.9,1.16ZM701.38,24.14,700.14,10.2l7-.62c9.33-.84,18.81-1.51,28.17-2l7-.37.74,14-7,.37c-9.2.48-18.51,1.14-27.67,2Zm124.81-2.07-7-.39c-9.17-.51-18.5-.86-27.71-1l-7-.14.27-14,7,.13c9.38.18,18.88.54,28.22,1.06l7,.39Z"/>
  </g>
</svg>
