<svg id="Layer_1" data-name="Layer 1" xmlns="http://www.w3.org/2000/svg" viewBox="0 0 4595.32 4595.32">
  <defs>
    <style>
      .cls-1 {
        fill: #1a6c77;
      }
    </style>
  </defs>
  <g id="sphera">
    <path class="cls-1" d="M2297.66,4595.32a2315,2315,0,0,1-463.06-46.68A2284.9,2284.9,0,0,1,1013,4202.91,2304.27,2304.27,0,0,1,180.56,3192,2286.19,2286.19,0,0,1,46.68,2760.72a2320.09,2320.09,0,0,1,0-926.12A2285.12,2285.12,0,0,1,392.4,1013,2304.56,2304.56,0,0,1,1403.31,180.56,2286.19,2286.19,0,0,1,1834.6,46.68a2320.09,2320.09,0,0,1,926.12,0A2284.9,2284.9,0,0,1,3582.3,392.41a2304.49,2304.49,0,0,1,832.46,1010.9,2286.92,2286.92,0,0,1,133.88,431.29,2320.09,2320.09,0,0,1,0,926.12,2284.9,2284.9,0,0,1-345.73,821.58A2304.49,2304.49,0,0,1,3192,4414.76a2286.19,2286.19,0,0,1-431.29,133.88A2315,2315,0,0,1,2297.66,4595.32ZM2297.66,2C1031.83,2,2,1031.83,2,2297.66S1031.83,4593.32,2297.66,4593.32,4593.32,3563.49,4593.32,2297.66,3563.49,2,2297.66,2Z"/>
    <path class="cls-1" d="M2297.66,4595.32a2148.2,2148.2,0,0,1-864.07-180.57,2196.49,2196.49,0,0,1-377.07-211.85A2253.88,2253.88,0,0,1,728,3922.34a2299.62,2299.62,0,0,1-271.06-340.05,2328.58,2328.58,0,0,1-334-821.58,2399.66,2399.66,0,0,1,0-926.1,2328.58,2328.58,0,0,1,334-821.58A2298.58,2298.58,0,0,1,728,673a2254.56,2254.56,0,0,1,328.53-280.57,2197.11,2197.11,0,0,1,377.07-211.84,2154.64,2154.64,0,0,1,1728.14,0A2197.49,2197.49,0,0,1,3538.8,392.41,2255.09,2255.09,0,0,1,3867.33,673a2298.52,2298.52,0,0,1,271.05,340,2328.34,2328.34,0,0,1,334,821.58,2399.66,2399.66,0,0,1,0,926.1,2328.34,2328.34,0,0,1-334,821.58,2299.56,2299.56,0,0,1-271.05,340.05A2254.4,2254.4,0,0,1,3538.8,4202.9a2196.87,2196.87,0,0,1-377.07,211.85,2148.2,2148.2,0,0,1-864.07,180.57ZM2297.66,2C1074.74,2,79.83,1031.83,79.83,2297.66s994.91,2295.66,2217.83,2295.66S4515.49,3563.49,4515.49,2297.66,3520.57,2,2297.66,2Z"/>
    <path class="cls-1" d="M2297.66,4595.32a1744.83,1744.83,0,0,1-400.9-46.69,1790.41,1790.41,0,0,1-373.39-133.9c-117.86-57.59-231.54-128.87-337.88-211.86-105.32-82.2-204.36-176.6-294.37-280.57s-171.71-218.39-242.86-340.05A2429.45,2429.45,0,0,1,464.88,3192,2552.37,2552.37,0,0,1,349,2760.69a2673.63,2673.63,0,0,1,0-926.06,2552.37,2552.37,0,0,1,115.89-431.28,2429.45,2429.45,0,0,1,183.38-390.28C719.41,891.41,801.12,777,891.12,673s189.05-198.38,294.37-280.57c106.34-83,220-154.28,337.88-211.87A1791,1791,0,0,1,1896.76,46.69a1744.45,1744.45,0,0,1,801.79,0,1790.54,1790.54,0,0,1,373.39,133.89c117.87,57.59,231.55,128.88,337.88,211.87C3515.15,474.64,3614.19,569,3704.19,673s171.72,218.39,242.87,340.05a2430.31,2430.31,0,0,1,183.38,390.28,2553.29,2553.29,0,0,1,115.88,431.28,2673,2673,0,0,1,0,926.06A2553.29,2553.29,0,0,1,4130.44,3192a2430.31,2430.31,0,0,1-183.38,390.28c-71.15,121.66-152.86,236.07-242.87,340.05s-189,198.37-294.37,280.57c-106.33,83-220,154.27-337.88,211.86a1790,1790,0,0,1-373.39,133.9A1744.81,1744.81,0,0,1,2297.66,4595.32ZM2297.66,2C1202,2,310.59,1031.83,310.59,2297.66S1202,4593.32,2297.66,4593.32,4284.73,3563.49,4284.73,2297.66,3393.33,2,2297.66,2Z"/>
    <path class="cls-1" d="M2297.66,4595.32a1183.15,1183.15,0,0,1-328.3-46.7c-104.58-30.2-207.45-75.26-305.75-133.93-96.5-57.59-189.58-128.88-276.65-211.88-86.23-82.21-167.31-176.61-241-280.59s-140.58-218.38-198.83-340C888.32,3459.35,837.82,3328.05,797,3191.91c-41.56-138.65-73.48-283.74-94.87-431.25a3256.7,3256.7,0,0,1,0-926c21.39-147.51,53.31-292.6,94.87-431.25,40.81-136.14,91.31-267.44,150.12-390.27,58.25-121.66,125.14-236.07,198.83-340s154.77-198.39,241-280.59c87.07-83,180.15-154.29,276.65-211.89C1761.91,122,1864.78,76.9,1969.36,46.7a1177.29,1177.29,0,0,1,656.59,0c104.59,30.2,207.46,75.26,305.76,133.92,96.5,57.6,189.58,128.89,276.64,211.89,86.23,82.2,167.32,176.61,241,280.59s140.58,218.38,198.83,340c58.8,122.83,109.31,254.13,150.12,390.27,41.56,138.65,73.48,283.74,94.87,431.25a3256.7,3256.7,0,0,1,0,926c-21.39,147.51-53.31,292.6-94.87,431.25-40.81,136.14-91.32,267.44-150.12,390.26-58.25,121.67-125.15,236.08-198.83,340s-154.78,198.38-241,280.59c-87.06,83-180.14,154.29-276.64,211.88-98.3,58.67-201.17,103.73-305.76,133.93A1183.08,1183.08,0,0,1,2297.66,4595.32ZM2297.66,2c-434.41,0-842.85,238.74-1150.07,672.25S671.06,1684.4,671.06,2297.66s169.24,1189.79,476.53,1623.4,715.66,672.26,1150.07,672.26,842.85-238.75,1150.07-672.26,476.53-1010.15,476.53-1623.4S3755,1107.87,3447.73,674.25,2732.07,2,2297.66,2Z"/>
    <path class="cls-1" d="M2297.66,4595.32c-77.86,0-155.67-15.73-231.26-46.74-73.65-30.21-146.09-75.29-215.31-134-67.94-57.61-133.46-128.91-194.75-211.92-60.7-82.21-117.77-176.61-169.64-280.59s-98.94-218.37-139.94-340c-41.38-122.81-76.93-254.11-105.65-390.23-59.75-283.21-90-584-90-894.17s30.3-611,90-894.17c28.72-136.13,64.27-267.42,105.65-390.23,41-121.66,88.08-236.06,139.94-340s108.94-198.38,169.64-280.59c61.29-83,126.81-154.31,194.75-211.92C1920.31,122,1992.75,77,2066.4,46.74,2142,15.72,2219.8,0,2297.66,0s155.66,15.72,231.26,46.74C2602.57,77,2675,122,2744.22,180.72c67.94,57.61,133.47,128.91,194.76,211.92,60.69,82.21,117.77,176.61,169.63,280.59s98.95,218.37,139.95,340c41.38,122.81,76.93,254.1,105.65,390.23,59.75,283.21,90.05,584.05,90.05,894.17s-30.3,611-90.05,894.17c-28.72,136.12-64.27,267.42-105.65,390.23-41,121.66-88.08,236.06-139.95,340S2999.67,4120.47,2939,4202.68c-61.29,83-126.82,154.31-194.76,211.92-69.21,58.69-141.65,103.77-215.3,134C2453.32,4579.59,2375.52,4595.32,2297.66,4595.32ZM2297.66,2c-305.6,0-593,238.7-809.17,672.12-216.3,433.65-335.43,1010.23-335.43,1623.54s119.13,1189.89,335.43,1623.54c216.2,433.42,503.57,672.12,809.17,672.12s593-238.7,809.16-672.12c216.31-433.65,335.44-1010.23,335.44-1623.54S3323.13,1107.77,3106.82,674.12C2890.63,240.7,2603.26,2,2297.66,2Z"/>
    <path class="cls-1" d="M2297.66,4595.32c-40.67,0-81.29-15.77-120.74-46.88-38.36-30.24-76.08-75.36-112.11-134.08-71-115.76-134.8-281.45-189.56-492.47s-97.74-456.63-127.76-730.16c-31.08-283.18-46.84-584-46.84-894.07s15.76-610.89,46.84-894.07c30-273.54,73-519.2,127.76-730.16S1993.79,296.72,2064.81,181c36-58.72,73.75-103.84,112.11-134.08C2216.37,15.77,2257,0,2297.66,0S2379,15.77,2418.4,46.88c38.36,30.24,76.08,75.36,112.11,134.08,71,115.76,134.8,281.45,189.56,492.47s97.73,456.62,127.76,730.16c31.08,283.18,46.84,584,46.84,894.07s-15.76,610.89-46.84,894.07c-30,273.53-73,519.2-127.76,730.16s-118.54,376.71-189.56,492.47c-36,58.72-73.75,103.84-112.11,134.08C2379,4579.55,2338.33,4595.32,2297.66,4595.32ZM2297.66,2c-80.09,0-157.86,60.56-231.14,180C1995.6,297.6,1931.9,463.1,1877.18,673.93c-112.55,433.7-174.53,1010.35-174.53,1623.73s62,1190,174.53,1623.73c54.72,210.83,118.42,376.33,189.34,491.92,73.28,119.45,151.05,180,231.14,180s157.86-60.56,231.14-180c70.92-115.59,134.62-281.09,189.34-491.92,112.55-433.7,174.53-1010.35,174.53-1623.73s-62-1190-174.53-1623.73C2663.42,463.1,2599.72,297.6,2528.8,182,2455.52,62.56,2377.75,2,2297.66,2Z"/>
    <path class="cls-1" d="M2297.66,4595.32a1,1,0,0,1-1-1V1a1,1,0,0,1,2,0V4594.32A1,1,0,0,1,2297.66,4595.32Z"/>
    <path class="cls-1" d="M4516.57,1704H78.75a1,1,0,0,1,0-2H4516.57a1,1,0,0,1,0,2Z"/>
    <path class="cls-1" d="M4594.32,2299.34H1a1,1,0,0,1,0-2H4594.32a1,1,0,0,1,0,2Z"/>
    <path class="cls-1" d="M4289.83,1155.11H305.49a1,1,0,0,1,0-2H4289.83a1,1,0,0,1,0,2Z"/>
    <path class="cls-1" d="M3932.3,685.4H663a1,1,0,0,1,0-2H3932.3a1,1,0,0,1,0,2Z"/>
    <path class="cls-1" d="M3458.8,316.73H1136.52a1,1,0,0,1,0-2H3458.8a1,1,0,0,1,0,2Z"/>
    <path class="cls-1" d="M2910.27,84.61H1685a1,1,0,0,1,0-2H2910.27a1,1,0,0,1,0,2Z"/>
    <path class="cls-1" d="M4516.21,2894.67H79.1a1,1,0,1,1,0-2H4516.21a1,1,0,0,1,0,2Z"/>
    <path class="cls-1" d="M4289,3443.57H306.28a1,1,0,0,1,0-2H4289a1,1,0,0,1,0,2Z"/>
    <path class="cls-1" d="M3931,3913.28H664.35a1,1,0,1,1,0-2H3931a1,1,0,0,1,0,2Z"/>
    <path class="cls-1" d="M3456.47,4282H1138.84a1,1,0,0,1,0-2H3456.47a1,1,0,1,1,0,2Z"/>
    <path class="cls-1" d="M2905.28,4514.07H1690a1,1,0,0,1,0-2H2905.28a1,1,0,1,1,0,2Z"/>
  </g>
</svg>
