<svg id="Layer_1" xmlns="http://www.w3.org/2000/svg" viewBox="0 0 4603.32 4604">
  <defs>
    <style>
      .cls-1 {
        fill: #1a6c77;
      }
    </style>
  </defs>
  <g>
    <path class="cls-1" d="M2301.66,4603.32a2319.26,2319.26,0,0,1-463.86-46.76,2289.2,2289.2,0,0,1-823-346.33,2308.35,2308.35,0,0,1-833.9-1012.66A2290.37,2290.37,0,0,1,46.76,2765.52a2324.13,2324.13,0,0,1,0-927.72,2289.2,2289.2,0,0,1,346.33-823,2308.35,2308.35,0,0,1,1012.66-833.9A2290.14,2290.14,0,0,1,1837.8,46.76a2324.13,2324.13,0,0,1,927.72,0,2289.2,2289.2,0,0,1,823,346.33,2308.35,2308.35,0,0,1,833.9,1012.66,2290.87,2290.87,0,0,1,134.12,432.05,2324.13,2324.13,0,0,1,0,927.72,2289.2,2289.2,0,0,1-346.33,823,2308.35,2308.35,0,0,1-1012.66,833.9,2290.37,2290.37,0,0,1-432.05,134.12A2319.26,2319.26,0,0,1,2301.66,4603.32ZM2301.66,8C1036.93,8,8,1036.93,8,2301.66S1036.93,4595.32,2301.66,4595.32,4595.32,3566.39,4595.32,2301.66,3566.39,8,2301.66,8Z"/>
    <path class="cls-1" d="M2301.66,4603.32A2152.32,2152.32,0,0,1,1436,4422.42a2201,2201,0,0,1-377.75-212.23,2258.33,2258.33,0,0,1-329.11-281.06,2303.42,2303.42,0,0,1-271.53-340.64,2332.47,2332.47,0,0,1-334.58-823,2403.54,2403.54,0,0,1,0-927.67,2332.32,2332.32,0,0,1,334.58-823A2302.38,2302.38,0,0,1,729.15,674.19a2258.33,2258.33,0,0,1,329.11-281.06A2201,2201,0,0,1,1436,180.9a2158.67,2158.67,0,0,1,1731.3,0,2201.33,2201.33,0,0,1,377.75,212.23,2258.33,2258.33,0,0,1,329.11,281.06,2303,2303,0,0,1,271.53,340.64,2332.82,2332.82,0,0,1,334.58,823,2404.07,2404.07,0,0,1,0,927.67,2333,2333,0,0,1-334.58,823,2304.07,2304.07,0,0,1-271.53,340.64,2258.33,2258.33,0,0,1-329.11,281.06,2201.33,2201.33,0,0,1-377.75,212.23,2152.41,2152.41,0,0,1-865.65,180.9ZM2301.66,8C1079.87,8,85.86,1036.93,85.86,2301.66s994,2293.66,2215.8,2293.66S4517.45,3566.39,4517.45,2301.66,3523.45,8,2301.66,8Z"/>
    <path class="cls-1" d="M2301.66,4603.32a1748.36,1748.36,0,0,1-401.76-46.79,1794.49,1794.49,0,0,1-374.18-134.18c-118.1-57.71-232-129.13-338.56-212.28-105.52-82.36-204.74-176.93-294.92-281.1S720.22,3710.2,649,3588.32a2434.53,2434.53,0,0,1-183.68-390.93,2556.63,2556.63,0,0,1-116.08-432,2677.37,2677.37,0,0,1,0-927.51,2556.52,2556.52,0,0,1,116.08-432A2433.73,2433.73,0,0,1,649,1015c71.27-121.88,153.13-236.49,243.29-340.65s189.4-198.74,294.92-281.1C1293.71,310.1,1407.62,238.67,1525.72,181A1793.92,1793.92,0,0,1,1899.9,46.79a1748.24,1748.24,0,0,1,803.52,0A1793.92,1793.92,0,0,1,3077.6,181c118.1,57.7,232,129.13,338.55,212.28,105.52,82.36,204.75,176.93,294.92,281.1s172,218.77,243.3,340.65a2433.73,2433.73,0,0,1,183.68,390.93,2556.5,2556.5,0,0,1,116.07,432,2677.37,2677.37,0,0,1,0,927.51,2556.61,2556.61,0,0,1-116.07,432,2434.53,2434.53,0,0,1-183.68,390.93c-71.28,121.88-153.13,236.49-243.3,340.65s-189.4,198.74-294.92,281.1c-106.54,83.15-220.45,154.57-338.55,212.28a1794.49,1794.49,0,0,1-374.18,134.18A1748.43,1748.43,0,0,1,2301.66,4603.32ZM2301.66,8C1207.16,8,316.72,1036.93,316.72,2301.66s890.44,2293.66,1984.94,2293.66S4286.59,3566.39,4286.59,2301.66,3396.16,8,2301.66,8Z"/>
    <path class="cls-1" d="M2301.66,4603.32a1186.66,1186.66,0,0,1-329.27-46.84c-104.88-30.28-208-75.46-306.59-134.29-96.74-57.74-190-129.19-277.3-212.38-86.41-82.37-167.66-177-241.49-281.15S1006.18,3709.9,947.83,3588c-58.89-123-109.48-254.53-150.35-390.87-41.62-138.85-73.58-284.15-95-431.87a3260.65,3260.65,0,0,1,0-927.26c21.42-147.72,53.38-293,95-431.87,40.87-136.35,91.46-267.85,150.35-390.87,58.35-121.87,125.36-236.48,199.18-340.63s155.08-198.78,241.49-281.15c87.26-83.19,180.56-154.65,277.3-212.38,98.56-58.83,201.71-104,306.59-134.29a1180.75,1180.75,0,0,1,658.54,0c104.87,30.28,208,75.46,306.59,134.29,96.74,57.73,190,129.19,277.3,212.38,86.41,82.37,167.66,177,241.49,281.15s140.82,218.76,199.17,340.63c58.9,123,109.49,254.52,150.35,390.87,41.62,138.85,73.59,284.15,95,431.87a3261.62,3261.62,0,0,1,0,927.26c-21.42,147.72-53.39,293-95,431.87C3765,3333.5,3714.38,3465,3655.48,3588c-58.35,121.87-125.36,236.47-199.17,340.63s-155.08,198.78-241.49,281.15c-87.26,83.19-180.56,154.64-277.3,212.38-98.56,58.83-201.72,104-306.59,134.29A1186.71,1186.71,0,0,1,2301.66,4603.32ZM2301.66,8c-433.6,0-841.35,238.4-1148.12,671.28-307.07,433.3-476.19,1009.47-476.19,1622.38S846.47,3490.74,1153.54,3924c306.77,432.88,714.52,671.28,1148.12,671.28S3143,4356.92,3449.78,3924C3756.85,3490.74,3926,2914.56,3926,2301.66S3756.85,1112.58,3449.78,679.28C3143,246.4,2735.26,8,2301.66,8Z"/>
    <path class="cls-1" d="M2301.66,4603.32c-78.29,0-156.51-15.81-232.5-47-74-30.35-146.71-75.61-216.2-134.53-68.15-57.79-133.86-129.29-195.31-212.52-60.83-82.38-118-177-170-281.16s-99.11-218.71-140.16-340.55c-41.45-123-77-254.44-105.8-390.74-59.82-283.54-90.15-584.72-90.15-895.18s30.33-611.64,90.15-895.18c28.76-136.3,64.35-267.76,105.8-390.74,41-121.84,88.21-236.42,140.16-340.56s109.15-198.77,170-281.15C1719.1,310.8,1784.81,239.3,1853,181.51c69.49-58.92,142.23-104.18,216.2-134.53,76-31.17,154.21-47,232.5-47s156.51,15.81,232.49,47c74,30.35,146.72,75.61,216.21,134.53C2818.5,239.3,2884.22,310.8,2945.67,394c60.82,82.38,118,177,170,281.15s99.1,218.72,140.16,340.56c41.44,123,77,254.44,105.79,390.74,59.82,283.54,90.16,584.72,90.16,895.18s-30.34,611.64-90.16,895.18c-28.75,136.3-64.35,267.76-105.79,390.74-41.06,121.84-88.21,236.42-140.16,340.55s-109.16,198.78-170,281.16c-61.45,83.23-127.17,154.73-195.31,212.52-69.49,58.92-142.23,104.18-216.21,134.53C2458.17,4587.51,2379.94,4603.32,2301.66,4603.32ZM2301.66,8c-304.54,0-591.08,238.21-806.84,670.75-216.19,433.43-335.26,1009.79-335.26,1622.91s119.07,1189.48,335.26,1622.9c215.76,432.55,502.3,670.76,806.84,670.76s591.07-238.21,806.83-670.76c216.2-433.42,335.27-1009.78,335.27-1622.9S3324.69,1112.18,3108.49,678.75C2892.73,246.21,2606.2,8,2301.66,8Z"/>
    <path class="cls-1" d="M2301.66,4603.32c-41.38,0-82.64-16-122.65-47.54-38.65-30.48-76.62-75.88-112.86-134.93-71.21-116.06-135.13-282.1-190-493.5-54.81-211.2-97.84-457.11-127.89-730.9-31.11-283.41-46.88-584.46-46.88-894.79s15.77-611.38,46.88-894.79c30-273.79,73.08-519.71,127.89-730.91,54.86-211.39,118.78-377.43,190-493.49,36.24-59,74.21-104.45,112.86-134.93C2219,16,2260.28,0,2301.66,0s82.64,16,122.64,47.54C2463,78,2500.93,123.42,2537.16,182.47c71.21,116.06,135.14,282.1,190,493.49,54.81,211.2,97.83,457.12,127.89,730.91,31.11,283.41,46.88,584.46,46.88,894.79s-15.77,611.38-46.88,894.79c-30.06,273.79-73.08,519.7-127.89,730.9-54.86,211.4-118.79,377.44-190,493.5-36.23,59-74.2,104.45-112.86,134.93C2384.3,4587.32,2343,4603.32,2301.66,4603.32ZM2301.66,8c-79,0-155.95,60.11-228.69,178.65C2002.18,302,1938.56,467.34,1883.9,678c-112.54,433.66-174.51,1010.29-174.51,1623.69s62,1190,174.51,1623.68c54.66,210.63,118.28,375.94,189.07,491.32,72.74,118.55,149.68,178.66,228.69,178.66s156-60.11,228.68-178.66c70.8-115.38,134.41-280.69,189.07-491.32,112.54-433.65,174.52-1010.28,174.52-1623.68s-62-1190-174.52-1623.69C2664.75,467.34,2601.14,302,2530.34,186.65,2457.61,68.11,2380.67,8,2301.66,8Z"/>
    <path class="cls-1" d="M2301.66,4604a4,4,0,0,1-4-4V4.68a4,4,0,1,1,8,0V4600A4,4,0,0,1,2301.66,4604Z"/>
    <path class="cls-1" d="M4521.54,1710.75H81.78a4,4,0,1,1,0-8H4521.54a4,4,0,0,1,0,8Z"/>
    <path class="cls-1" d="M4599.32,2306.34H4a4,4,0,0,1,0-8H4599.32a4,4,0,0,1,0,8Z"/>
    <path class="cls-1" d="M4294.69,1161.61H308.62a4,4,0,0,1,0-8H4294.69a4,4,0,0,1,0,8Z"/>
    <path class="cls-1" d="M3937,691.7H666.3a4,4,0,0,1,0-8H3937a4,4,0,0,1,0,8Z"/>
    <path class="cls-1" d="M3463.3,322.87H1140a4,4,0,0,1,0-8H3463.3a4,4,0,0,1,0,8Z"/>
    <path class="cls-1" d="M2914.54,90.64H1688.78a4,4,0,0,1,0-8H2914.54a4,4,0,0,1,0,8Z"/>
    <path class="cls-1" d="M4521.18,2901.93H82.14a4,4,0,1,1,0-8h4439a4,4,0,0,1,0,8Z"/>
    <path class="cls-1" d="M4293.9,3451.07H309.42a4,4,0,0,1,0-8H4293.9a4,4,0,0,1,0,8Z"/>
    <path class="cls-1" d="M3935.67,3921h-3268a4,4,0,0,1,0-8h3268a4,4,0,0,1,0,8Z"/>
    <path class="cls-1" d="M3461,4289.81H1142.34a4,4,0,0,1,0-8H3461a4,4,0,1,1,0,8Z"/>
    <path class="cls-1" d="M2909.54,4522H1693.78a4,4,0,1,1,0-8H2909.54a4,4,0,0,1,0,8Z"/>
  </g>
</svg>
